<svg xmlns="http://www.w3.org/2000/svg" xmlns:xlink="http://www.w3.org/1999/xlink" width="250" zoomAndPan="magnify" viewBox="0 0 187.5 187.499992" height="250" stroke-width="0.5em" stroke-opacity="0.5" preserveAspectRatio="xMidYMid meet" version="1.0"><path stroke="#f8f8f8" fill="#1a2653" d="M 162.042969 2.078125 C 156.4375 2.078125 150.832031 4.25 146.671875 8.410156 L 93.5 61.398438 L 40.511719 8.410156 C 36.171875 4.25 30.746094 2.078125 25.136719 2.078125 C 19.53125 2.078125 13.925781 4.25 9.765625 8.410156 L 8.5 9.675781 C 0 18.175781 0 31.921875 8.5 40.421875 L 61.488281 93.410156 L 8.5 146.582031 C 0 155.082031 0 168.824219 8.5 177.324219 L 9.765625 178.589844 C 13.925781 182.75 19.53125 184.921875 25.136719 184.921875 C 30.746094 184.921875 36.351562 182.75 40.511719 178.589844 L 93.5 125.601562 L 146.492188 178.589844 C 150.648438 182.75 156.257812 184.921875 161.863281 184.921875 C 167.46875 184.921875 173.074219 182.75 177.234375 178.589844 L 178.5 177.324219 C 187 168.824219 187 155.082031 178.5 146.582031 L 125.511719 93.410156 L 178.5 40.421875 C 187 31.921875 187 18.175781 178.5 9.675781 L 177.234375 8.410156 C 173.074219 4.25 167.46875 2.078125 162.042969 2.078125 Z M 162.042969 2.078125 " fill-opacity="1" fill-rule="nonzero"/></svg>