<svg xmlns="http://www.w3.org/2000/svg" xmlns:xlink="http://www.w3.org/1999/xlink" width="500" zoomAndPan="magnify" viewBox="0 0 375 374.999991" height="500" preserveAspectRatio="xMidYMid meet" version="1.0"><path fill="#f8f8f846" d="M 187.5 0 C 290.625 0 375 84.375 375 187.5 C 375 290.625 290.625 375 187.5 375 C 84.375 375 0 290.625 0 187.5 C 0 84.375 84.375 0 187.5 0 Z M 187.5 20.769531 C 95.796875 20.769531 20.769531 95.796875 20.769531 187.5 C 20.769531 279.203125 95.796875 354.230469 187.5 354.230469 C 279.203125 354.230469 354.230469 279.203125 354.230469 187.5 C 354.230469 95.796875 279.203125 20.769531 187.5 20.769531 " fill-opacity="1" fill-rule="evenodd"/><path fill="#f8f8f846" d="M 112.425781 181.46875 L 185.171875 111.523438 C 186.480469 110.265625 188.539062 110.28125 189.828125 111.535156 L 189.851562 111.554688 L 261.832031 181.480469 L 261.855469 181.503906 L 264.207031 183.605469 C 264.945312 184.265625 265.320312 185.179688 265.320312 186.097656 L 265.335938 186.097656 L 265.335938 289.648438 C 265.335938 291.503906 263.832031 293.007812 261.980469 293.007812 L 210.429688 293.007812 L 210.429688 230.042969 C 210.429688 228.1875 208.925781 226.683594 207.070312 226.683594 L 167.929688 226.683594 C 166.074219 226.683594 164.570312 228.1875 164.570312 230.042969 L 164.570312 293.007812 L 113.023438 293.007812 C 111.167969 293.007812 109.667969 291.503906 109.667969 289.648438 L 109.667969 185.539062 C 109.667969 184.5 110.136719 183.570312 110.878906 182.957031 L 112.425781 181.46875 " fill-opacity="1" fill-rule="evenodd"/><path fill="#f8f8f846" d="M 187.5 94.382812 L 88.054688 188.816406 C 85.371094 191.363281 81.128906 191.261719 78.578125 188.578125 C 76.027344 185.898438 76.132812 181.648438 78.816406 179.097656 L 182.878906 80.273438 C 185.46875 77.816406 189.53125 77.816406 192.121094 80.273438 L 296.183594 179.097656 C 298.867188 181.648438 298.972656 185.898438 296.421875 188.578125 C 293.875 191.261719 289.628906 191.363281 286.949219 188.816406 L 187.5 94.382812 " fill-opacity="1" fill-rule="evenodd"/><path fill="#f8f8f846" d="M 127.957031 143.511719 L 114.761719 162.410156 L 102.9375 162.410156 L 102.9375 104.308594 L 136.277344 104.308594 L 136.277344 142.285156 L 127.957031 143.511719 " fill-opacity="1" fill-rule="evenodd"/></svg>